Format : MPEG-4
Format profile : Base Media / Version 2
Codec ID : mp42
File size : 174 MiB
Duration : 42mn 14s
Overall bit rate : 576 Kbps
Encoded date : UTC 2010-10-21 11:18:23
Tagged date : UTC 2010-10-21 11:19:03
Writing application : mp4creator 1.6.1d

Video
ID : 1
Format : AVC
Format/Info : Advanced Video Codec
Format profile : Baseline@L1.3
Format settings, CABAC : No
Format settings, ReFrames : 1 frame
Codec ID : avc1
Codec ID/Info : Advanced Video Coding
Duration : 42mn 14s
Bit rate mode : Variable
Bit rate : 512 Kbps
Width : 480 pixels
Height : 272 pixels
Display aspect ratio : 16:9
Original display aspect ratio : 16:9
Frame rate mode : Constant
Frame rate : 24.000 fps
Resolution : 24 bits
Colorimetry : 4:2:0
Scan type : Progressive
Bits/(Pixel*Frame) : 0.163
Stream size : 155 MiB (89%)
Encoded date : UTC 2010-10-21 11:18:23
Tagged date : UTC 2010-10-21 11:18:59

Audio
ID : 2
Format : AAC
Format/Info : Advanced Audio Codec
Format version : Version 4
Format profile : LC
Format settings, SBR : Yes
Format settings, PS : No
Codec ID : 40
Duration : 42mn 14s
Bit rate mode : Variable
Bit rate : 62.7 Kbps
Maximum bit rate : 151 Kbps
Channel(s) : 2 channels
Channel positions : L R
Sampling rate : 48.0 KHz
Resolution : 16 bits
Stream size : 18.9 MiB (11%)
Encoded date : UTC 2010-10-21 11:19:00
Tagged date : UTC 2010-10-21 11:19:03



Law & Order: Los Angeles is an American police procedural-legal television drama series set in Los Angeles, where it is produced. Created and produced by Dick Wolf and developed by Blake Masters, it premiered on NBC on September 29, 2010, as a spin-off of Wolf's successful crime drama Law & Order.

Thanks to LOL for the original files
 
http://www.imdb.com/title/tt1657081/
 
http://img213.imageshack.us/img213/2817/laworderlah264vicemp4sn.jpg 
http://img830.imageshack.us/img830/2817/laworderlah264vicemp4sn.jpg